<svg width="60" height="60" viewBox="0 0 60 60" fill="none" xmlns="http://www.w3.org/2000/svg">
<path d="M30 0C54.0056 0 60 5.99438 60 30C60 54.0056 54.0056 60 30 60C5.99437 60 0 54.0056 0 30C0 5.99438 5.99437 0 30 0ZM25.0781 46.4044C31.3875 46.4138 36.5925 41.2294 36.6038 34.9219C36.6038 28.6219 31.4156 23.4375 25.1194 23.4375C18.81 23.4375 13.6238 28.6219 13.6238 34.9219C13.6238 41.2088 18.7913 46.3969 25.0781 46.4044ZM45.9375 45.9375V14.0625H14.0625V19.6781H40.3031V45.9375H45.9375ZM25.0781 29.0719C28.3106 29.0719 30.9375 31.6894 30.9281 34.9312C30.9281 38.1637 28.3106 40.7794 25.0688 40.7794C17.2669 40.7794 17.2669 29.0625 25.0781 29.0719Z" fill="black"/>
</svg>
